<?xml version="1.0" encoding="UTF-8"?>
<svg width="500px" height="500px" viewBox="0 0 500 500" version="1.1" xmlns="http://www.w3.org/2000/svg" xmlns:xlink="http://www.w3.org/1999/xlink">
    <!-- Generator: Sketch 51.2 (57519) - http://www.bohemiancoding.com/sketch -->
    <title>Artboard</title>
    <desc>Created with Sketch.</desc>
    <defs></defs>
    <g id="Artboard" stroke="none" stroke-width="1" fill="none" fill-rule="evenodd">
        <path d="M164.5,333.5 L164.5,187.207107 L143.792893,166.5 L81.5,166.5 L81.5,333.5 L164.5,333.5 Z" id="dw-copy" stroke="#979797" fill="#FDCD3B"></path>
        <path d="M0.5,0.5 L0.5,499.5 L499.5,499.5 L499.5,0.5 L0.5,0.5 Z M228.5,397.5 L17.5,397.5 L17.5,102.5 L165.207107,102.5 L228.5,165.792893 L228.5,397.5 Z M311.84375,333.5 L331.84375,333.5 L331.84375,228.5 L395.84375,228.5 L395.84375,333.5 L415.84375,333.5 L415.84375,102.5 L479.84375,102.5 L479.84375,397.5 L247.84375,397.5 L247.84375,102.5 L311.84375,102.5 L311.84375,333.5 Z" id="Combined-Shape" stroke="#979797" fill="#FDCD3B"></path>
    </g>
</svg>